<svg xmlns="http://www.w3.org/2000/svg" viewBox="0 0 64 64">
  <defs>
    <linearGradient id="fs" x1="0" y1="0" x2="1" y2="1">
      <stop offset="0" stop-color="#8FAFD6"/><stop offset=".5" stop-color="#4D6B91"/><stop offset="1" stop-color="#243549"/>
    </linearGradient>
  </defs>
  <rect width="64" height="64" rx="14" fill="#0F0F10"/>
  <path d="M20 10 L26 20 L18 23 Z" fill="url(#fs)"/>
  <path d="M44 10 L38 20 L46 23 Z" fill="url(#fs)"/>
  <path d="M15 22 L49 22 L52 32 L45 51 L36 54 L28 54 L19 51 L12 32 Z" fill="url(#fs)"/>
  <path d="M32 22 L49 22 L52 32 L45 51 L36 54 L32 54 Z" fill="#0F0F10" opacity=".22"/>
  <path d="M19 33 L29 30.5 L27.6 37 L21 37.8 Z" fill="#C12A2A"/>
  <path d="M45 33 L35 30.5 L36.4 37 L43 37.8 Z" fill="#C12A2A"/>
  <path d="M24 44 L40 44 L37.5 49.5 L26.5 49.5 Z" fill="#101114"/>
</svg>
